<svg width="1862" height="270" viewBox="0 0 1862 270" fill="none" xmlns="http://www.w3.org/2000/svg">
<path d="M318.864 33.5881V25.6364H360.642V33.5881H344.457V78H335.048V33.5881H318.864ZM377.543 54.9886V78H368.287V25.6364H377.338V45.4006H377.798C378.719 43.1847 380.142 41.4375 382.068 40.1591C384.011 38.8636 386.483 38.2159 389.483 38.2159C392.21 38.2159 394.588 38.7869 396.616 39.929C398.645 41.071 400.213 42.7415 401.321 44.9403C402.446 47.1392 403.009 49.8239 403.009 52.9943V78H393.753V54.4261C393.753 51.7841 393.071 49.7301 391.707 48.2642C390.361 46.7812 388.469 46.0398 386.031 46.0398C384.395 46.0398 382.929 46.3977 381.634 47.1136C380.355 47.8125 379.349 48.8267 378.616 50.1562C377.901 51.4858 377.543 53.0966 377.543 54.9886ZM429.83 78.767C425.892 78.767 422.491 77.9489 419.628 76.3125C416.781 74.6591 414.591 72.3239 413.057 69.3068C411.523 66.2727 410.756 62.7017 410.756 58.5938C410.756 54.554 411.523 51.0085 413.057 47.9574C414.608 44.8892 416.773 42.5028 419.551 40.7983C422.33 39.0767 425.594 38.2159 429.344 38.2159C431.764 38.2159 434.048 38.608 436.196 39.392C438.361 40.1591 440.27 41.3523 441.923 42.9716C443.594 44.5909 444.906 46.6534 445.861 49.1591C446.815 51.6477 447.293 54.6136 447.293 58.0568V60.8949H415.102V54.6562H438.42C438.403 52.8835 438.02 51.3068 437.27 49.9261C436.52 48.5284 435.472 47.429 434.125 46.6278C432.795 45.8267 431.244 45.4261 429.472 45.4261C427.58 45.4261 425.918 45.8864 424.486 46.8068C423.054 47.7102 421.938 48.9034 421.136 50.3864C420.352 51.8523 419.952 53.4631 419.935 55.2188V60.6648C419.935 62.9489 420.352 64.9091 421.188 66.5455C422.023 68.1648 423.19 69.4091 424.69 70.2784C426.19 71.1307 427.946 71.5568 429.957 71.5568C431.304 71.5568 432.523 71.3693 433.614 70.9943C434.705 70.6023 435.651 70.0312 436.452 69.2812C437.253 68.5312 437.858 67.6023 438.267 66.4943L446.909 67.4659C446.364 69.75 445.324 71.7443 443.79 73.4489C442.273 75.1364 440.33 76.4489 437.96 77.3864C435.591 78.3068 432.881 78.767 429.83 78.767ZM324.344 141H349.375L375.812 205.5H376.938L403.375 141H428.406V237H408.719V174.516H407.922L383.078 236.531H369.672L344.828 174.281H344.031V237H324.344V141ZM490.926 206.344V165H510.895V237H491.723V223.922H490.973C489.348 228.141 486.645 231.531 482.863 234.094C479.113 236.656 474.535 237.938 469.129 237.938C464.316 237.938 460.082 236.844 456.426 234.656C452.77 232.469 449.91 229.359 447.848 225.328C445.816 221.297 444.785 216.469 444.754 210.844V165H464.723V207.281C464.754 211.531 465.895 214.891 468.145 217.359C470.395 219.828 473.41 221.062 477.191 221.062C479.598 221.062 481.848 220.516 483.941 219.422C486.035 218.297 487.723 216.641 489.004 214.453C490.316 212.266 490.957 209.562 490.926 206.344ZM586.773 185.531L568.492 186.656C568.18 185.094 567.508 183.687 566.477 182.437C565.445 181.156 564.086 180.141 562.398 179.391C560.742 178.609 558.758 178.219 556.445 178.219C553.352 178.219 550.742 178.875 548.617 180.187C546.492 181.469 545.43 183.187 545.43 185.344C545.43 187.062 546.117 188.516 547.492 189.703C548.867 190.891 551.227 191.844 554.57 192.562L567.602 195.187C574.602 196.625 579.82 198.937 583.258 202.125C586.695 205.312 588.414 209.5 588.414 214.687C588.414 219.406 587.023 223.547 584.242 227.109C581.492 230.672 577.711 233.453 572.898 235.453C568.117 237.422 562.602 238.406 556.352 238.406C546.82 238.406 539.227 236.422 533.57 232.453C527.945 228.453 524.648 223.016 523.68 216.141L543.32 215.109C543.914 218.016 545.352 220.234 547.633 221.766C549.914 223.266 552.836 224.016 556.398 224.016C559.898 224.016 562.711 223.344 564.836 222C566.992 220.625 568.086 218.859 568.117 216.703C568.086 214.891 567.32 213.406 565.82 212.25C564.32 211.062 562.008 210.156 558.883 209.531L546.414 207.047C539.383 205.641 534.148 203.203 530.711 199.734C527.305 196.266 525.602 191.844 525.602 186.469C525.602 181.844 526.852 177.859 529.352 174.516C531.883 171.172 535.43 168.594 539.992 166.781C544.586 164.969 549.961 164.063 556.117 164.063C565.211 164.063 572.367 165.984 577.586 169.828C582.836 173.672 585.898 178.906 586.773 185.531ZM600.988 237V165H620.957V237H600.988ZM611.02 155.719C608.051 155.719 605.504 154.734 603.379 152.766C601.285 150.766 600.238 148.375 600.238 145.594C600.238 142.844 601.285 140.484 603.379 138.516C605.504 136.516 608.051 135.516 611.02 135.516C613.988 135.516 616.52 136.516 618.613 138.516C620.738 140.484 621.801 142.844 621.801 145.594C621.801 148.375 620.738 150.766 618.613 152.766C616.52 154.734 613.988 155.719 611.02 155.719ZM669.484 238.406C662.109 238.406 655.766 236.844 650.453 233.719C645.172 230.562 641.109 226.187 638.266 220.594C635.453 215 634.047 208.562 634.047 201.281C634.047 193.906 635.469 187.437 638.313 181.875C641.188 176.281 645.266 171.922 650.547 168.797C655.828 165.641 662.109 164.063 669.391 164.063C675.672 164.063 681.172 165.203 685.891 167.484C690.609 169.766 694.344 172.969 697.094 177.094C699.844 181.219 701.359 186.062 701.641 191.625H682.797C682.266 188.031 680.859 185.141 678.578 182.953C676.328 180.734 673.375 179.625 669.719 179.625C666.625 179.625 663.922 180.469 661.609 182.156C659.328 183.812 657.547 186.234 656.266 189.422C654.984 192.609 654.344 196.469 654.344 201C654.344 205.594 654.969 209.5 656.219 212.719C657.5 215.937 659.297 218.391 661.609 220.078C663.922 221.766 666.625 222.609 669.719 222.609C672 222.609 674.047 222.141 675.859 221.203C677.703 220.266 679.219 218.906 680.406 217.125C681.625 215.312 682.422 213.141 682.797 210.609H701.641C701.328 216.109 699.828 220.953 697.141 225.141C694.484 229.297 690.813 232.547 686.125 234.891C681.438 237.234 675.891 238.406 669.484 238.406ZM745.352 237V141H783.227C790.508 141 796.711 142.391 801.836 145.172C806.961 147.922 810.867 151.75 813.555 156.656C816.273 161.531 817.633 167.156 817.633 173.531C817.633 179.906 816.258 185.531 813.508 190.406C810.758 195.281 806.773 199.078 801.555 201.797C796.367 204.516 790.086 205.875 782.711 205.875H758.57V189.609H779.43C783.336 189.609 786.555 188.937 789.086 187.594C791.648 186.219 793.555 184.328 794.805 181.922C796.086 179.484 796.727 176.687 796.727 173.531C796.727 170.344 796.086 167.562 794.805 165.187C793.555 162.781 791.648 160.922 789.086 159.609C786.523 158.266 783.273 157.594 779.336 157.594H765.648V237H745.352ZM849.039 238.359C844.445 238.359 840.352 237.563 836.758 235.969C833.164 234.344 830.32 231.953 828.227 228.797C826.164 225.609 825.133 221.641 825.133 216.891C825.133 212.891 825.867 209.531 827.336 206.812C828.805 204.094 830.805 201.906 833.336 200.25C835.867 198.594 838.742 197.344 841.961 196.5C845.211 195.656 848.617 195.062 852.18 194.719C856.367 194.281 859.742 193.875 862.305 193.5C864.867 193.094 866.727 192.5 867.883 191.719C869.039 190.937 869.617 189.781 869.617 188.25V187.969C869.617 185 868.68 182.703 866.805 181.078C864.961 179.453 862.336 178.641 858.93 178.641C855.336 178.641 852.477 179.437 850.352 181.031C848.227 182.594 846.82 184.562 846.133 186.937L827.664 185.438C828.602 181.062 830.445 177.281 833.195 174.094C835.945 170.875 839.492 168.406 843.836 166.687C848.211 164.937 853.273 164.063 859.023 164.063C863.023 164.063 866.852 164.531 870.508 165.469C874.195 166.406 877.461 167.859 880.305 169.828C883.18 171.797 885.445 174.328 887.102 177.422C888.758 180.484 889.586 184.156 889.586 188.437V237H870.648V227.016H870.086C868.93 229.266 867.383 231.25 865.445 232.969C863.508 234.656 861.18 235.984 858.461 236.953C855.742 237.891 852.602 238.359 849.039 238.359ZM854.758 224.578C857.695 224.578 860.289 224 862.539 222.844C864.789 221.656 866.555 220.062 867.836 218.063C869.117 216.062 869.758 213.797 869.758 211.266V203.625C869.133 204.031 868.273 204.406 867.18 204.75C866.117 205.062 864.914 205.359 863.57 205.641C862.227 205.891 860.883 206.125 859.539 206.344C858.195 206.531 856.977 206.703 855.883 206.859C853.539 207.203 851.492 207.75 849.742 208.5C847.992 209.25 846.633 210.266 845.664 211.547C844.695 212.797 844.211 214.359 844.211 216.234C844.211 218.953 845.195 221.031 847.164 222.469C849.164 223.875 851.695 224.578 854.758 224.578ZM943.375 165V180H900.016V165H943.375ZM909.859 147.75H929.828V214.875C929.828 216.719 930.109 218.156 930.672 219.187C931.234 220.187 932.016 220.891 933.016 221.297C934.047 221.703 935.234 221.906 936.578 221.906C937.516 221.906 938.453 221.828 939.391 221.672C940.328 221.484 941.047 221.344 941.547 221.25L944.688 236.109C943.688 236.422 942.281 236.781 940.469 237.188C938.656 237.625 936.453 237.891 933.859 237.984C929.047 238.172 924.828 237.531 921.203 236.062C917.609 234.594 914.813 232.312 912.813 229.219C910.813 226.125 909.828 222.219 909.859 217.5V147.75ZM977.898 195.375V237H957.93V141H977.336V177.703H978.18C979.805 173.453 982.43 170.125 986.055 167.719C989.68 165.281 994.227 164.063 999.695 164.063C1004.7 164.063 1009.05 165.156 1012.77 167.344C1016.52 169.5 1019.43 172.609 1021.49 176.672C1023.59 180.703 1024.62 185.531 1024.59 191.156V237H1004.62V194.719C1004.65 190.281 1003.52 186.828 1001.24 184.359C998.992 181.891 995.836 180.656 991.773 180.656C989.055 180.656 986.648 181.234 984.555 182.391C982.492 183.547 980.867 185.234 979.68 187.453C978.523 189.641 977.93 192.281 977.898 195.375ZM1054.5 237L1034.91 165H1055.11L1066.27 213.375H1066.93L1078.55 165H1098.38L1110.19 213.094H1110.8L1121.77 165H1141.93L1122.38 237H1101.24L1088.86 191.719H1087.97L1075.6 237H1054.5ZM1173.11 238.359C1168.52 238.359 1164.42 237.563 1160.83 235.969C1157.23 234.344 1154.39 231.953 1152.3 228.797C1150.23 225.609 1149.2 221.641 1149.2 216.891C1149.2 212.891 1149.94 209.531 1151.41 206.812C1152.88 204.094 1154.88 201.906 1157.41 200.25C1159.94 198.594 1162.81 197.344 1166.03 196.5C1169.28 195.656 1172.69 195.062 1176.25 194.719C1180.44 194.281 1183.81 193.875 1186.38 193.5C1188.94 193.094 1190.8 192.5 1191.95 191.719C1193.11 190.937 1193.69 189.781 1193.69 188.25V187.969C1193.69 185 1192.75 182.703 1190.87 181.078C1189.03 179.453 1186.41 178.641 1183 178.641C1179.41 178.641 1176.55 179.437 1174.42 181.031C1172.3 182.594 1170.89 184.562 1170.2 186.937L1151.73 185.438C1152.67 181.062 1154.52 177.281 1157.27 174.094C1160.02 170.875 1163.56 168.406 1167.91 166.687C1172.28 164.937 1177.34 164.063 1183.09 164.063C1187.09 164.063 1190.92 164.531 1194.58 165.469C1198.27 166.406 1201.53 167.859 1204.38 169.828C1207.25 171.797 1209.52 174.328 1211.17 177.422C1212.83 180.484 1213.66 184.156 1213.66 188.437V237H1194.72V227.016H1194.16C1193 229.266 1191.45 231.25 1189.52 232.969C1187.58 234.656 1185.25 235.984 1182.53 236.953C1179.81 237.891 1176.67 238.359 1173.11 238.359ZM1178.83 224.578C1181.77 224.578 1184.36 224 1186.61 222.844C1188.86 221.656 1190.62 220.062 1191.91 218.063C1193.19 216.062 1193.83 213.797 1193.83 211.266V203.625C1193.2 204.031 1192.34 204.406 1191.25 204.75C1190.19 205.062 1188.98 205.359 1187.64 205.641C1186.3 205.891 1184.95 206.125 1183.61 206.344C1182.27 206.531 1181.05 206.703 1179.95 206.859C1177.61 207.203 1175.56 207.75 1173.81 208.5C1172.06 209.25 1170.7 210.266 1169.73 211.547C1168.77 212.797 1168.28 214.359 1168.28 216.234C1168.28 218.953 1169.27 221.031 1171.23 222.469C1173.23 223.875 1175.77 224.578 1178.83 224.578ZM1238.9 264C1236.37 264 1233.99 263.797 1231.77 263.391C1229.59 263.016 1227.77 262.531 1226.34 261.937L1230.84 247.031C1233.18 247.75 1235.29 248.141 1237.16 248.203C1239.07 248.266 1240.71 247.828 1242.09 246.891C1243.49 245.953 1244.63 244.359 1245.51 242.109L1246.68 239.062L1220.85 165H1241.85L1256.76 217.875H1257.51L1272.55 165H1293.7L1265.71 244.781C1264.37 248.656 1262.54 252.031 1260.23 254.906C1257.95 257.813 1255.05 260.047 1251.55 261.609C1248.05 263.203 1243.84 264 1238.9 264ZM1363.82 185.531L1345.54 186.656C1345.23 185.094 1344.55 183.687 1343.52 182.437C1342.49 181.156 1341.13 180.141 1339.45 179.391C1337.79 178.609 1335.8 178.219 1333.49 178.219C1330.4 178.219 1327.79 178.875 1325.66 180.187C1323.54 181.469 1322.48 183.187 1322.48 185.344C1322.48 187.062 1323.16 188.516 1324.54 189.703C1325.91 190.891 1328.27 191.844 1331.62 192.562L1344.65 195.187C1351.65 196.625 1356.87 198.937 1360.3 202.125C1363.74 205.312 1365.46 209.5 1365.46 214.687C1365.46 219.406 1364.07 223.547 1361.29 227.109C1358.54 230.672 1354.76 233.453 1349.95 235.453C1345.16 237.422 1339.65 238.406 1333.4 238.406C1323.87 238.406 1316.27 236.422 1310.62 232.453C1304.99 228.453 1301.7 223.016 1300.73 216.141L1320.37 215.109C1320.96 218.016 1322.4 220.234 1324.68 221.766C1326.96 223.266 1329.88 224.016 1333.45 224.016C1336.95 224.016 1339.76 223.344 1341.88 222C1344.04 220.625 1345.13 218.859 1345.16 216.703C1345.13 214.891 1344.37 213.406 1342.87 212.25C1341.37 211.062 1339.05 210.156 1335.93 209.531L1323.46 207.047C1316.43 205.641 1311.2 203.203 1307.76 199.734C1304.35 196.266 1302.65 191.844 1302.65 186.469C1302.65 181.844 1303.9 177.859 1306.4 174.516C1308.93 171.172 1312.48 168.594 1317.04 166.781C1321.63 164.969 1327.01 164.063 1333.16 164.063C1342.26 164.063 1349.41 165.984 1354.63 169.828C1359.88 173.672 1362.95 178.906 1363.82 185.531ZM1408.96 237V141H1446.84C1454.12 141 1460.32 142.391 1465.45 145.172C1470.57 147.922 1474.48 151.75 1477.16 156.656C1479.88 161.531 1481.24 167.156 1481.24 173.531C1481.24 179.906 1479.87 185.531 1477.12 190.406C1474.37 195.281 1470.38 199.078 1465.16 201.797C1459.98 204.516 1453.7 205.875 1446.32 205.875H1422.18V189.609H1443.04C1446.95 189.609 1450.16 188.937 1452.7 187.594C1455.26 186.219 1457.16 184.328 1458.41 181.922C1459.7 179.484 1460.34 176.687 1460.34 173.531C1460.34 170.344 1459.7 167.562 1458.41 165.187C1457.16 162.781 1455.26 160.922 1452.7 159.609C1450.13 158.266 1446.88 157.594 1442.95 157.594H1429.26V237H1408.96ZM1494.05 237V165H1513.41V177.562H1514.16C1515.47 173.094 1517.68 169.719 1520.77 167.438C1523.86 165.125 1527.43 163.969 1531.46 163.969C1532.46 163.969 1533.54 164.031 1534.69 164.156C1535.85 164.281 1536.86 164.453 1537.74 164.672V182.391C1536.8 182.109 1535.5 181.859 1533.85 181.641C1532.19 181.422 1530.68 181.312 1529.3 181.312C1526.36 181.312 1523.74 181.953 1521.43 183.234C1519.14 184.484 1517.33 186.234 1515.99 188.484C1514.68 190.734 1514.02 193.328 1514.02 196.266V237H1494.05ZM1577.24 238.406C1569.96 238.406 1563.66 236.859 1558.35 233.766C1553.07 230.641 1548.99 226.297 1546.12 220.734C1543.24 215.141 1541.8 208.656 1541.8 201.281C1541.8 193.844 1543.24 187.344 1546.12 181.781C1548.99 176.187 1553.07 171.844 1558.35 168.75C1563.66 165.625 1569.96 164.063 1577.24 164.063C1584.52 164.063 1590.8 165.625 1596.09 168.75C1601.4 171.844 1605.49 176.187 1608.37 181.781C1611.24 187.344 1612.68 193.844 1612.68 201.281C1612.68 208.656 1611.24 215.141 1608.37 220.734C1605.49 226.297 1601.4 230.641 1596.09 233.766C1590.8 236.859 1584.52 238.406 1577.24 238.406ZM1577.34 222.937C1580.65 222.937 1583.41 222 1585.63 220.125C1587.85 218.219 1589.52 215.625 1590.65 212.344C1591.8 209.062 1592.38 205.328 1592.38 201.141C1592.38 196.953 1591.8 193.219 1590.65 189.937C1589.52 186.656 1587.85 184.062 1585.63 182.156C1583.41 180.25 1580.65 179.297 1577.34 179.297C1573.99 179.297 1571.18 180.25 1568.9 182.156C1566.65 184.062 1564.95 186.656 1563.79 189.937C1562.66 193.219 1562.1 196.953 1562.1 201.141C1562.1 205.328 1562.66 209.062 1563.79 212.344C1564.95 215.625 1566.65 218.219 1568.9 220.125C1571.18 222 1573.99 222.937 1577.34 222.937ZM1625.66 165H1645.63V240.563C1645.63 246.125 1644.54 250.625 1642.35 254.063C1640.16 257.5 1637.02 260.016 1632.93 261.609C1628.87 263.203 1624.01 264 1618.35 264C1617.66 264 1617.01 263.984 1616.38 263.953C1615.73 263.953 1615.04 263.938 1614.32 263.906V248.297C1614.85 248.328 1615.32 248.344 1615.73 248.344C1616.1 248.375 1616.51 248.391 1616.95 248.391C1620.16 248.391 1622.41 247.703 1623.7 246.328C1625.01 244.984 1625.66 242.953 1625.66 240.234V165ZM1635.6 155.719C1632.66 155.719 1630.13 154.734 1628.01 152.766C1625.88 150.766 1624.82 148.375 1624.82 145.594C1624.82 142.844 1625.88 140.484 1628.01 138.516C1630.13 136.516 1632.66 135.516 1635.6 135.516C1638.6 135.516 1641.15 136.516 1643.24 138.516C1645.37 140.484 1646.43 142.844 1646.43 145.594C1646.43 148.375 1645.37 150.766 1643.24 152.766C1641.15 154.734 1638.6 155.719 1635.6 155.719ZM1694.44 238.406C1687.04 238.406 1680.66 236.906 1675.32 233.906C1670 230.875 1665.91 226.594 1663.04 221.062C1660.16 215.5 1658.72 208.922 1658.72 201.328C1658.72 193.922 1660.16 187.422 1663.04 181.828C1665.91 176.234 1669.96 171.875 1675.18 168.75C1680.43 165.625 1686.58 164.063 1693.64 164.063C1698.39 164.063 1702.82 164.828 1706.91 166.359C1711.04 167.859 1714.63 170.125 1717.69 173.156C1720.79 176.187 1723.19 180 1724.91 184.594C1726.63 189.156 1727.49 194.5 1727.49 200.625V206.109H1666.69V193.734H1708.69C1708.69 190.859 1708.07 188.312 1706.82 186.094C1705.57 183.875 1703.83 182.141 1701.61 180.891C1699.43 179.609 1696.88 178.969 1693.97 178.969C1690.94 178.969 1688.25 179.672 1685.91 181.078C1683.6 182.453 1681.79 184.312 1680.47 186.656C1679.16 188.969 1678.49 191.547 1678.46 194.391V206.156C1678.46 209.719 1679.11 212.797 1680.43 215.391C1681.77 217.984 1683.66 219.984 1686.1 221.391C1688.54 222.797 1691.43 223.5 1694.77 223.5C1696.99 223.5 1699.02 223.187 1700.86 222.562C1702.71 221.937 1704.29 221 1705.6 219.75C1706.91 218.5 1707.91 216.969 1708.6 215.156L1727.07 216.375C1726.13 220.812 1724.21 224.687 1721.3 228C1718.43 231.281 1714.71 233.844 1710.14 235.688C1705.61 237.5 1700.38 238.406 1694.44 238.406ZM1773.05 238.406C1765.68 238.406 1759.33 236.844 1754.02 233.719C1748.74 230.562 1744.68 226.187 1741.83 220.594C1739.02 215 1737.61 208.562 1737.61 201.281C1737.61 193.906 1739.04 187.437 1741.88 181.875C1744.75 176.281 1748.83 171.922 1754.11 168.797C1759.39 165.641 1765.68 164.063 1772.96 164.063C1779.24 164.063 1784.74 165.203 1789.46 167.484C1794.18 169.766 1797.91 172.969 1800.66 177.094C1803.41 181.219 1804.93 186.062 1805.21 191.625H1786.36C1785.83 188.031 1784.43 185.141 1782.14 182.953C1779.89 180.734 1776.94 179.625 1773.29 179.625C1770.19 179.625 1767.49 180.469 1765.18 182.156C1762.89 183.812 1761.11 186.234 1759.83 189.422C1758.55 192.609 1757.91 196.469 1757.91 201C1757.91 205.594 1758.54 209.5 1759.79 212.719C1761.07 215.937 1762.86 218.391 1765.18 220.078C1767.49 221.766 1770.19 222.609 1773.29 222.609C1775.57 222.609 1777.61 222.141 1779.43 221.203C1781.27 220.266 1782.79 218.906 1783.97 217.125C1785.19 215.312 1785.99 213.141 1786.36 210.609H1805.21C1804.89 216.109 1803.39 220.953 1800.71 225.141C1798.05 229.297 1794.38 232.547 1789.69 234.891C1785 237.234 1779.46 238.406 1773.05 238.406ZM1856.29 165V180H1812.93V165H1856.29ZM1822.77 147.75H1842.74V214.875C1842.74 216.719 1843.02 218.156 1843.59 219.187C1844.15 220.187 1844.93 220.891 1845.93 221.297C1846.96 221.703 1848.15 221.906 1849.49 221.906C1850.43 221.906 1851.37 221.828 1852.3 221.672C1853.24 221.484 1853.96 221.344 1854.46 221.25L1857.6 236.109C1856.6 236.422 1855.2 236.781 1853.38 237.188C1851.57 237.625 1849.37 237.891 1846.77 237.984C1841.96 238.172 1837.74 237.531 1834.12 236.062C1830.52 234.594 1827.73 232.312 1825.73 229.219C1823.73 226.125 1822.74 222.219 1822.77 217.5V147.75Z" fill="#002A5C"/>
<g clip-path="url(#clip0_5_45)">
<path d="M270 0H0V265.345H270V0Z" fill="#002A5C"/>
<path d="M270 174.569H116.379" stroke="white" stroke-opacity="0.95" stroke-width="5"/>
<path d="M270 188.535H74.4828" stroke="white" stroke-opacity="0.95" stroke-width="5"/>
<path d="M270 203.198H0" stroke="white" stroke-width="5.3"/>
<path d="M270 216.466H125.69" stroke="white" stroke-opacity="0.95" stroke-width="5"/>
<path d="M270 230.431H125.69" stroke="white" stroke-opacity="0.95" stroke-width="5"/>
<path d="M172.242 2.79315L172.718 114.888C172.627 154.153 102.664 109.604 102.561 153.777L102.414 262.696" stroke="white" stroke-width="5" stroke-linecap="round" stroke-linejoin="round"/>
<path d="M195.518 25.6036L195.517 144.458C195.446 175.139 125.826 140.053 125.746 174.569L125.745 218.794L125.69 262.552" stroke="#14779B" stroke-width="5" stroke-linecap="round" stroke-linejoin="round"/>
<path d="M219.245 53.5345L219.244 170.724C219.189 194.438 149.185 167.457 149.124 194.136L149.17 262.474" stroke="#D12A2A" stroke-width="5" stroke-linecap="round" stroke-linejoin="round"/>
</g>
<defs>
<clipPath id="clip0_5_45">
<rect width="270" height="270" fill="white"/>
</clipPath>
</defs>
</svg>
